<mxfile host="app.diagrams.net" modified="2023-06-04T03:17:45.807Z" agent="Mozilla/5.0 (Windows NT 10.0; Win64; x64) AppleWebKit/537.36 (KHTML, like Gecko) Chrome/114.0.0.0 Safari/537.36" etag="DfMgMRfPv78FBBVRkOY9" version="21.3.7" type="device">
  <diagram id="PKfgpwBmVT9mVAi820yN" name="第 1 页">
    <mxGraphModel dx="1052" dy="571" grid="1" gridSize="10" guides="1" tooltips="1" connect="1" arrows="1" fold="1" page="1" pageScale="1" pageWidth="3300" pageHeight="4681" math="0" shadow="0">
      <root>
        <mxCell id="0" />
        <mxCell id="1" parent="0" />
        <mxCell id="smReB5II-RdA10IpJIWS-24" value="" style="rounded=1;whiteSpace=wrap;html=1;fillColor=#f5f5f5;fontColor=#333333;strokeColor=#666666;" vertex="1" parent="1">
          <mxGeometry x="1420" y="295" width="370" height="450" as="geometry" />
        </mxCell>
        <mxCell id="rjjlBSl8TxCraREon6u_-1" value="SimpleKV（Key-Value内存数据库）" style="rounded=1;whiteSpace=wrap;html=1;fillColor=#d5e8d4;strokeColor=#82b366;" parent="1" vertex="1">
          <mxGeometry x="870" y="570" width="210" height="60" as="geometry" />
        </mxCell>
        <mxCell id="rjjlBSl8TxCraREon6u_-2" value="Lvgl 图形库" style="rounded=1;whiteSpace=wrap;html=1;fillColor=#e1d5e7;strokeColor=#9673a6;" parent="1" vertex="1">
          <mxGeometry x="1090" y="570" width="210" height="60" as="geometry" />
        </mxCell>
        <mxCell id="rjjlBSl8TxCraREon6u_-4" value="" style="rounded=1;whiteSpace=wrap;html=1;fillColor=#d5e8d4;strokeColor=#82b366;" parent="1" vertex="1">
          <mxGeometry x="860" y="270" width="450" height="290" as="geometry" />
        </mxCell>
        <mxCell id="rjjlBSl8TxCraREon6u_-5" value="MooncakeUI 框架" style="text;html=1;strokeColor=none;fillColor=none;align=center;verticalAlign=middle;whiteSpace=wrap;rounded=0;" parent="1" vertex="1">
          <mxGeometry x="1020" y="270" width="130" height="30" as="geometry" />
        </mxCell>
        <mxCell id="rjjlBSl8TxCraREon6u_-6" value="App 生命周期管理框架" style="rounded=1;whiteSpace=wrap;html=1;fillColor=#fff2cc;strokeColor=#d6b656;" parent="1" vertex="1">
          <mxGeometry x="880" y="450" width="410" height="40" as="geometry" />
        </mxCell>
        <mxCell id="rjjlBSl8TxCraREon6u_-7" value="" style="rounded=1;whiteSpace=wrap;html=1;fillColor=#fff2cc;strokeColor=#d6b656;" parent="1" vertex="1">
          <mxGeometry x="880" y="310" width="100" height="125" as="geometry" />
        </mxCell>
        <mxCell id="rjjlBSl8TxCraREon6u_-8" value="" style="rounded=1;whiteSpace=wrap;html=1;fillColor=#fff2cc;strokeColor=#d6b656;" parent="1" vertex="1">
          <mxGeometry x="1000" y="310" width="290" height="125" as="geometry" />
        </mxCell>
        <mxCell id="rjjlBSl8TxCraREon6u_-9" value="系统内置 App" style="text;html=1;strokeColor=none;fillColor=none;align=center;verticalAlign=middle;whiteSpace=wrap;rounded=0;" parent="1" vertex="1">
          <mxGeometry x="1080" y="310" width="130" height="30" as="geometry" />
        </mxCell>
        <mxCell id="rjjlBSl8TxCraREon6u_-10" value="App 基类、安装卸载框架" style="rounded=1;whiteSpace=wrap;html=1;fillColor=#fff2cc;strokeColor=#d6b656;" parent="1" vertex="1">
          <mxGeometry x="880" y="500" width="410" height="40" as="geometry" />
        </mxCell>
        <mxCell id="rjjlBSl8TxCraREon6u_-12" value="启动动画" style="rounded=1;whiteSpace=wrap;html=1;fillColor=#dae8fc;strokeColor=#6c8ebf;" parent="1" vertex="1">
          <mxGeometry x="1010" y="350" width="70" height="30" as="geometry" />
        </mxCell>
        <mxCell id="rjjlBSl8TxCraREon6u_-13" value="启动器" style="rounded=1;whiteSpace=wrap;html=1;fillColor=#dae8fc;strokeColor=#6c8ebf;" parent="1" vertex="1">
          <mxGeometry x="1010" y="390" width="70" height="30" as="geometry" />
        </mxCell>
        <mxCell id="rjjlBSl8TxCraREon6u_-14" value="动画表盘" style="rounded=1;whiteSpace=wrap;html=1;fillColor=#dae8fc;strokeColor=#6c8ebf;" parent="1" vertex="1">
          <mxGeometry x="1170" y="390" width="110" height="30" as="geometry" />
        </mxCell>
        <mxCell id="rjjlBSl8TxCraREon6u_-15" value="用户自定义表盘" style="rounded=1;whiteSpace=wrap;html=1;fillColor=#dae8fc;strokeColor=#6c8ebf;" parent="1" vertex="1">
          <mxGeometry x="1170" y="350" width="110" height="30" as="geometry" />
        </mxCell>
        <mxCell id="rjjlBSl8TxCraREon6u_-16" value="画板" style="rounded=1;whiteSpace=wrap;html=1;fillColor=#dae8fc;strokeColor=#6c8ebf;" parent="1" vertex="1">
          <mxGeometry x="1090" y="350" width="70" height="30" as="geometry" />
        </mxCell>
        <mxCell id="rjjlBSl8TxCraREon6u_-17" value="设置" style="rounded=1;whiteSpace=wrap;html=1;fillColor=#dae8fc;strokeColor=#6c8ebf;" parent="1" vertex="1">
          <mxGeometry x="1090" y="390" width="70" height="30" as="geometry" />
        </mxCell>
        <mxCell id="rjjlBSl8TxCraREon6u_-18" value="用户 App" style="text;html=1;strokeColor=none;fillColor=none;align=center;verticalAlign=middle;whiteSpace=wrap;rounded=0;" parent="1" vertex="1">
          <mxGeometry x="865" y="310" width="130" height="30" as="geometry" />
        </mxCell>
        <mxCell id="rjjlBSl8TxCraREon6u_-20" value="Anything" style="rounded=1;whiteSpace=wrap;html=1;fillColor=#dae8fc;strokeColor=#6c8ebf;" parent="1" vertex="1">
          <mxGeometry x="888.75" y="350" width="82.5" height="70" as="geometry" />
        </mxCell>
        <mxCell id="rjjlBSl8TxCraREon6u_-21" value="" style="rounded=1;whiteSpace=wrap;html=1;fillColor=#d5e8d4;strokeColor=#82b366;" parent="1" vertex="1">
          <mxGeometry x="860" y="640" width="450" height="130" as="geometry" />
        </mxCell>
        <mxCell id="rjjlBSl8TxCraREon6u_-22" value="HAL 硬件抽象层" style="rounded=1;whiteSpace=wrap;html=1;fillColor=#fff2cc;strokeColor=#d6b656;" parent="1" vertex="1">
          <mxGeometry x="880" y="710" width="410" height="40" as="geometry" />
        </mxCell>
        <mxCell id="rjjlBSl8TxCraREon6u_-23" value="Hardware Manager 硬件管理层" style="rounded=1;whiteSpace=wrap;html=1;fillColor=#fff2cc;strokeColor=#d6b656;" parent="1" vertex="1">
          <mxGeometry x="880" y="660" width="410" height="40" as="geometry" />
        </mxCell>
        <mxCell id="smReB5II-RdA10IpJIWS-9" value="" style="edgeStyle=orthogonalEdgeStyle;rounded=0;orthogonalLoop=1;jettySize=auto;html=1;" edge="1" parent="1" source="smReB5II-RdA10IpJIWS-1" target="smReB5II-RdA10IpJIWS-2">
          <mxGeometry relative="1" as="geometry" />
        </mxCell>
        <mxCell id="smReB5II-RdA10IpJIWS-1" value="onSetup" style="rounded=1;whiteSpace=wrap;html=1;fillColor=#d5e8d4;strokeColor=#82b366;" vertex="1" parent="1">
          <mxGeometry x="1450" y="342.5" width="120" height="30" as="geometry" />
        </mxCell>
        <mxCell id="smReB5II-RdA10IpJIWS-12" value="" style="edgeStyle=orthogonalEdgeStyle;rounded=0;orthogonalLoop=1;jettySize=auto;html=1;" edge="1" parent="1" source="smReB5II-RdA10IpJIWS-2" target="smReB5II-RdA10IpJIWS-3">
          <mxGeometry relative="1" as="geometry" />
        </mxCell>
        <mxCell id="smReB5II-RdA10IpJIWS-2" value="onCreate" style="rounded=1;whiteSpace=wrap;html=1;fillColor=#dae8fc;strokeColor=#6c8ebf;" vertex="1" parent="1">
          <mxGeometry x="1450" y="415" width="120" height="30" as="geometry" />
        </mxCell>
        <mxCell id="smReB5II-RdA10IpJIWS-13" value="" style="edgeStyle=orthogonalEdgeStyle;rounded=0;orthogonalLoop=1;jettySize=auto;html=1;" edge="1" parent="1" source="smReB5II-RdA10IpJIWS-3" target="smReB5II-RdA10IpJIWS-4">
          <mxGeometry relative="1" as="geometry" />
        </mxCell>
        <mxCell id="smReB5II-RdA10IpJIWS-3" value="onResume" style="rounded=1;whiteSpace=wrap;html=1;fillColor=#dae8fc;strokeColor=#6c8ebf;" vertex="1" parent="1">
          <mxGeometry x="1450" y="465" width="120" height="30" as="geometry" />
        </mxCell>
        <mxCell id="smReB5II-RdA10IpJIWS-15" value="" style="edgeStyle=orthogonalEdgeStyle;rounded=0;orthogonalLoop=1;jettySize=auto;html=1;" edge="1" parent="1" source="smReB5II-RdA10IpJIWS-4" target="smReB5II-RdA10IpJIWS-6">
          <mxGeometry relative="1" as="geometry" />
        </mxCell>
        <mxCell id="smReB5II-RdA10IpJIWS-4" value="onRunning" style="rounded=1;whiteSpace=wrap;html=1;fillColor=#e1d5e7;strokeColor=#9673a6;" vertex="1" parent="1">
          <mxGeometry x="1450" y="555" width="120" height="30" as="geometry" />
        </mxCell>
        <mxCell id="smReB5II-RdA10IpJIWS-17" style="edgeStyle=orthogonalEdgeStyle;rounded=0;orthogonalLoop=1;jettySize=auto;html=1;entryX=1;entryY=0.5;entryDx=0;entryDy=0;" edge="1" parent="1" source="smReB5II-RdA10IpJIWS-5" target="smReB5II-RdA10IpJIWS-3">
          <mxGeometry relative="1" as="geometry">
            <Array as="points">
              <mxPoint x="1660" y="480" />
            </Array>
          </mxGeometry>
        </mxCell>
        <mxCell id="smReB5II-RdA10IpJIWS-5" value="onRunningBG" style="rounded=1;whiteSpace=wrap;html=1;fillColor=#e1d5e7;strokeColor=#9673a6;" vertex="1" parent="1">
          <mxGeometry x="1600" y="555" width="120" height="30" as="geometry" />
        </mxCell>
        <mxCell id="smReB5II-RdA10IpJIWS-14" value="" style="edgeStyle=orthogonalEdgeStyle;rounded=0;orthogonalLoop=1;jettySize=auto;html=1;" edge="1" parent="1" source="smReB5II-RdA10IpJIWS-6" target="smReB5II-RdA10IpJIWS-7">
          <mxGeometry relative="1" as="geometry" />
        </mxCell>
        <mxCell id="smReB5II-RdA10IpJIWS-16" style="edgeStyle=orthogonalEdgeStyle;rounded=0;orthogonalLoop=1;jettySize=auto;html=1;entryX=0.5;entryY=1;entryDx=0;entryDy=0;" edge="1" parent="1" source="smReB5II-RdA10IpJIWS-6" target="smReB5II-RdA10IpJIWS-5">
          <mxGeometry relative="1" as="geometry" />
        </mxCell>
        <mxCell id="smReB5II-RdA10IpJIWS-6" value="onPause" style="rounded=1;whiteSpace=wrap;html=1;fillColor=#ffe6cc;strokeColor=#d79b00;" vertex="1" parent="1">
          <mxGeometry x="1450" y="645" width="120" height="30" as="geometry" />
        </mxCell>
        <mxCell id="smReB5II-RdA10IpJIWS-7" value="onDestroy" style="rounded=1;whiteSpace=wrap;html=1;fillColor=#ffe6cc;strokeColor=#d79b00;" vertex="1" parent="1">
          <mxGeometry x="1450" y="695" width="120" height="30" as="geometry" />
        </mxCell>
        <mxCell id="smReB5II-RdA10IpJIWS-18" value="&lt;font style=&quot;font-size: 10px;&quot;&gt;&lt;i&gt;App 安装&amp;nbsp;&lt;/i&gt;&lt;/font&gt;" style="text;html=1;strokeColor=none;fillColor=none;align=left;verticalAlign=middle;whiteSpace=wrap;rounded=0;fontSize=9;" vertex="1" parent="1">
          <mxGeometry x="1590" y="342.5" width="130" height="30" as="geometry" />
        </mxCell>
        <mxCell id="smReB5II-RdA10IpJIWS-19" value="&lt;font style=&quot;font-size: 10px;&quot;&gt;&lt;i&gt;App 启动&lt;/i&gt;&lt;/font&gt;" style="text;html=1;strokeColor=none;fillColor=none;align=left;verticalAlign=middle;whiteSpace=wrap;rounded=0;fontSize=9;" vertex="1" parent="1">
          <mxGeometry x="1590" y="415" width="130" height="30" as="geometry" />
        </mxCell>
        <mxCell id="smReB5II-RdA10IpJIWS-21" value="&lt;font style=&quot;font-size: 10px;&quot;&gt;&lt;i&gt;App 被抢占前台&lt;/i&gt;&lt;/font&gt;" style="text;html=1;strokeColor=none;fillColor=none;align=left;verticalAlign=middle;whiteSpace=wrap;rounded=0;fontSize=9;" vertex="1" parent="1">
          <mxGeometry x="1670" y="645" width="130" height="30" as="geometry" />
        </mxCell>
        <mxCell id="smReB5II-RdA10IpJIWS-22" value="&lt;font style=&quot;font-size: 10px;&quot;&gt;&lt;i&gt;App 重获前台&lt;/i&gt;&lt;/font&gt;" style="text;html=1;strokeColor=none;fillColor=none;align=left;verticalAlign=middle;whiteSpace=wrap;rounded=0;fontSize=9;" vertex="1" parent="1">
          <mxGeometry x="1670" y="465" width="130" height="30" as="geometry" />
        </mxCell>
        <mxCell id="smReB5II-RdA10IpJIWS-23" value="&lt;font style=&quot;font-size: 10px;&quot;&gt;&lt;i&gt;App 结束&lt;/i&gt;&lt;/font&gt;" style="text;html=1;strokeColor=none;fillColor=none;align=left;verticalAlign=middle;whiteSpace=wrap;rounded=0;fontSize=9;" vertex="1" parent="1">
          <mxGeometry x="1590" y="695" width="130" height="30" as="geometry" />
        </mxCell>
        <mxCell id="smReB5II-RdA10IpJIWS-25" value="App 生命周期管理框架" style="text;html=1;strokeColor=none;fillColor=none;align=center;verticalAlign=middle;whiteSpace=wrap;rounded=0;" vertex="1" parent="1">
          <mxGeometry x="1540" y="295" width="130" height="30" as="geometry" />
        </mxCell>
      </root>
    </mxGraphModel>
  </diagram>
</mxfile>
